<svg preserveAspectRatio="none" overflow="visible" style="display: block;" width="20" height="20" viewBox="0 0 20 20" fill="none" xmlns="http://www.w3.org/2000/svg">
<g id="Icon &#194;&#183; 20&#195;&#151;20 &#194;&#183; stipple" clip-path="url(#clip0_0_74)">
<path id="Vector" d="M12.5 7.225C13.0385 7.225 13.475 6.78848 13.475 6.25C13.475 5.71152 13.0385 5.275 12.5 5.275C11.9615 5.275 11.525 5.71152 11.525 6.25C11.525 6.78848 11.9615 7.225 12.5 7.225Z" fill="#736760"/>
<path id="Vector_2" d="M9.375 10.35C9.91348 10.35 10.35 9.91348 10.35 9.375C10.35 8.83652 9.91348 8.4 9.375 8.4C8.83652 8.4 8.4 8.83652 8.4 9.375C8.4 9.91348 8.83652 10.35 9.375 10.35Z" fill="#736760"/>
<path id="Vector_3" d="M12.5 10.35C13.0385 10.35 13.475 9.91348 13.475 9.375C13.475 8.83652 13.0385 8.4 12.5 8.4C11.9615 8.4 11.525 8.83652 11.525 9.375C11.525 9.91348 11.9615 10.35 12.5 10.35Z" fill="#736760"/>
<path id="Vector_4" d="M15.625 10.35C16.1635 10.35 16.6 9.91348 16.6 9.375C16.6 8.83652 16.1635 8.4 15.625 8.4C15.0865 8.4 14.65 8.83652 14.65 9.375C14.65 9.91348 15.0865 10.35 15.625 10.35Z" fill="#736760"/>
<path id="Vector_5" d="M6.25 13.475C6.78848 13.475 7.225 13.0385 7.225 12.5C7.225 11.9615 6.78848 11.525 6.25 11.525C5.71152 11.525 5.275 11.9615 5.275 12.5C5.275 13.0385 5.71152 13.475 6.25 13.475Z" fill="#736760"/>
<path id="Vector_6" d="M9.375 13.475C9.91348 13.475 10.35 13.0385 10.35 12.5C10.35 11.9615 9.91348 11.525 9.375 11.525C8.83652 11.525 8.4 11.9615 8.4 12.5C8.4 13.0385 8.83652 13.475 9.375 13.475Z" fill="#736760"/>
<path id="Vector_7" d="M12.5 13.475C13.0385 13.475 13.475 13.0385 13.475 12.5C13.475 11.9615 13.0385 11.525 12.5 11.525C11.9615 11.525 11.525 11.9615 11.525 12.5C11.525 13.0385 11.9615 13.475 12.5 13.475Z" fill="#736760"/>
<path id="Vector_8" d="M15.625 13.475C16.1635 13.475 16.6 13.0385 16.6 12.5C16.6 11.9615 16.1635 11.525 15.625 11.525C15.0865 11.525 14.65 11.9615 14.65 12.5C14.65 13.0385 15.0865 13.475 15.625 13.475Z" fill="#736760"/>
<path id="Vector_9" d="M18.75 13.475C19.2885 13.475 19.725 13.0385 19.725 12.5C19.725 11.9615 19.2885 11.525 18.75 11.525C18.2115 11.525 17.775 11.9615 17.775 12.5C17.775 13.0385 18.2115 13.475 18.75 13.475Z" fill="#736760"/>
<path id="Vector_10" d="M9.375 16.6C9.91348 16.6 10.35 16.1635 10.35 15.625C10.35 15.0865 9.91348 14.65 9.375 14.65C8.83652 14.65 8.4 15.0865 8.4 15.625C8.4 16.1635 8.83652 16.6 9.375 16.6Z" fill="#736760"/>
<path id="Vector_11" d="M12.5 16.6C13.0385 16.6 13.475 16.1635 13.475 15.625C13.475 15.0865 13.0385 14.65 12.5 14.65C11.9615 14.65 11.525 15.0865 11.525 15.625C11.525 16.1635 11.9615 16.6 12.5 16.6Z" fill="#736760"/>
<path id="Vector_12" d="M15.625 16.6C16.1635 16.6 16.6 16.1635 16.6 15.625C16.6 15.0865 16.1635 14.65 15.625 14.65C15.0865 14.65 14.65 15.0865 14.65 15.625C14.65 16.1635 15.0865 16.6 15.625 16.6Z" fill="#736760"/>
<path id="Vector_13" d="M12.5 19.725C13.0385 19.725 13.475 19.2885 13.475 18.75C13.475 18.2115 13.0385 17.775 12.5 17.775C11.9615 17.775 11.525 18.2115 11.525 18.75C11.525 19.2885 11.9615 19.725 12.5 19.725Z" fill="#736760"/>
<path id="Vector_14" d="M12.5 22.85C13.0385 22.85 13.475 22.4135 13.475 21.875C13.475 21.3365 13.0385 20.9 12.5 20.9C11.9615 20.9 11.525 21.3365 11.525 21.875C11.525 22.4135 11.9615 22.85 12.5 22.85Z" fill="#736760"/>
</g>
<defs>
<clipPath id="clip0_0_74">
<rect width="20" height="20" fill="white"/>
</clipPath>
</defs>
</svg>
