<svg preserveAspectRatio="none" overflow="visible" style="display: block;" width="20" height="20" viewBox="0 0 20 20" fill="none" xmlns="http://www.w3.org/2000/svg">
<g id="Metric icon &#226;&#128;&#148; Research categories" clip-path="url(#clip0_0_65)">
<circle id="Ellipse" cx="7.61905" cy="0.476191" r="0.714286" fill="#736761"/>
<circle id="Ellipse_2" cx="10" cy="0.476191" r="0.714286" fill="#736761"/>
<circle id="Ellipse_3" cx="12.381" cy="0.476191" r="0.714286" fill="#736761"/>
<circle id="Ellipse_4" cx="5.2381" cy="2.85714" r="0.714286" fill="#736761"/>
<circle id="Ellipse_5" cx="14.7619" cy="2.85714" r="0.714286" fill="#736761"/>
<circle id="Ellipse_6" cx="2.85714" cy="5.2381" r="0.714286" fill="#736761"/>
<circle id="Ellipse_7" cx="17.1429" cy="5.2381" r="0.714286" fill="#736761"/>
<circle id="Ellipse_8" cx="2.85714" cy="7.61905" r="0.714286" fill="#736761"/>
<circle id="Ellipse_9" cx="17.1429" cy="7.61905" r="0.714286" fill="#736761"/>
<circle id="Ellipse_10" cx="2.85714" cy="10" r="0.714286" fill="#736761"/>
<circle id="Ellipse_11" cx="17.1429" cy="10" r="0.714286" fill="#736761"/>
<circle id="Ellipse_12" cx="5.2381" cy="12.381" r="0.714286" fill="#736761"/>
<circle id="Ellipse_13" cx="14.7619" cy="12.381" r="0.714286" fill="#736761"/>
<circle id="Ellipse_14" cx="7.61905" cy="14.7619" r="0.714286" fill="#736761"/>
<circle id="Ellipse_15" cx="10" cy="14.7619" r="0.714286" fill="#736761"/>
<circle id="Ellipse_16" cx="12.381" cy="14.7619" r="0.714286" fill="#736761"/>
<circle id="Ellipse_17" cx="10" cy="5.2381" r="0.714286" fill="#736761"/>
<circle id="Ellipse_18" cx="10" cy="7.61905" r="0.714286" fill="#736761"/>
<circle id="Ellipse_19" cx="10" cy="10" r="0.714286" fill="#736761"/>
<circle id="Ellipse_20" cx="12.381" cy="7.61905" r="0.714286" fill="#736761"/>
<circle id="Ellipse_21" cx="14.7619" cy="7.61905" r="0.714286" fill="#736761"/>
<circle id="Ellipse_22" cx="5.2381" cy="17.1429" r="0.714286" fill="#736761" fill-opacity="0.5"/>
<circle id="Ellipse_23" cx="10" cy="17.1429" r="0.714286" fill="#736761" fill-opacity="0.5"/>
<circle id="Ellipse_24" cx="14.7619" cy="17.1429" r="0.714286" fill="#736761" fill-opacity="0.5"/>
<circle id="Ellipse_25" cx="2.85714" cy="19.5238" r="0.714286" fill="#736761" fill-opacity="0.25"/>
<circle id="Ellipse_26" cx="7.61905" cy="19.5238" r="0.714286" fill="#736761" fill-opacity="0.25"/>
<circle id="Ellipse_27" cx="12.381" cy="19.5238" r="0.714286" fill="#736761" fill-opacity="0.25"/>
<circle id="Ellipse_28" cx="17.1429" cy="19.5238" r="0.714286" fill="#736761" fill-opacity="0.25"/>
</g>
<defs>
<clipPath id="clip0_0_65">
<rect width="20" height="20" fill="white"/>
</clipPath>
</defs>
</svg>
