<svg preserveAspectRatio="none" overflow="visible" style="display: block;" width="14" height="14" viewBox="0 0 14 14" fill="none" xmlns="http://www.w3.org/2000/svg">
<g id="Icon" clip-path="url(#clip0_0_96)">
<path id="Vector" d="M5.25 5.25175C5.24969 5.14823 5.27693 5.04649 5.32893 4.95697C5.38093 4.86746 5.45582 4.7934 5.5459 4.74239C5.63598 4.69138 5.73802 4.66526 5.84153 4.66671C5.94504 4.66817 6.0463 4.69715 6.13492 4.75067L9.04983 6.49892C9.13661 6.55064 9.20847 6.62401 9.25838 6.71185C9.30828 6.79969 9.33451 6.89898 9.33451 7C9.33451 7.10102 9.30828 7.20032 9.25838 7.28815C9.20847 7.37599 9.13661 7.44936 9.04983 7.50108L6.13492 9.24933C6.04626 9.30288 5.94495 9.33186 5.84138 9.33329C5.73782 9.33472 5.63575 9.30855 5.54565 9.25747C5.45554 9.20639 5.38067 9.13225 5.32871 9.04265C5.27675 8.95305 5.24958 8.85124 5.25 8.74767V5.25175Z" stroke-width="1.16667" stroke-linecap="round" stroke-linejoin="round" stroke="#111111"/>
<path id="Vector_2" d="M12.8333 7C12.8333 10.2217 10.2217 12.8333 7 12.8333C3.77834 12.8333 1.16667 10.2217 1.16667 7C1.16667 3.77834 3.77834 1.16667 7 1.16667C10.2217 1.16667 12.8333 3.77834 12.8333 7Z" stroke-width="1.16667" stroke-linecap="round" stroke-linejoin="round" stroke="#111111"/>
</g>
<defs>
<clipPath id="clip0_0_96">
<rect width="14" height="14" fill="white"/>
</clipPath>
</defs>
</svg>
