<svg preserveAspectRatio="none" overflow="visible" style="display: block;" width="20" height="20" viewBox="0 0 20 20" fill="none" xmlns="http://www.w3.org/2000/svg">
<g id="Icon &#194;&#183; 20&#195;&#151;20 &#194;&#183; stipple">
<path id="Vector" d="M5 5.78C5.43078 5.78 5.78 5.43078 5.78 5C5.78 4.56922 5.43078 4.22 5 4.22C4.56922 4.22 4.22 4.56922 4.22 5C4.22 5.43078 4.56922 5.78 5 5.78Z" fill="#736760"/>
<path id="Vector_2" d="M7.5 5.78C7.93078 5.78 8.28 5.43078 8.28 5C8.28 4.56922 7.93078 4.22 7.5 4.22C7.06922 4.22 6.72 4.56922 6.72 5C6.72 5.43078 7.06922 5.78 7.5 5.78Z" fill="#736760"/>
<path id="Vector_3" d="M10 5.78C10.4308 5.78 10.78 5.43078 10.78 5C10.78 4.56922 10.4308 4.22 10 4.22C9.56922 4.22 9.22 4.56922 9.22 5C9.22 5.43078 9.56922 5.78 10 5.78Z" fill="#736760"/>
<path id="Vector_4" d="M12.5 5.78C12.9308 5.78 13.28 5.43078 13.28 5C13.28 4.56922 12.9308 4.22 12.5 4.22C12.0692 4.22 11.72 4.56922 11.72 5C11.72 5.43078 12.0692 5.78 12.5 5.78Z" fill="#736760"/>
<path id="Vector_5" d="M15 5.78C15.4308 5.78 15.78 5.43078 15.78 5C15.78 4.56922 15.4308 4.22 15 4.22C14.5692 4.22 14.22 4.56922 14.22 5C14.22 5.43078 14.5692 5.78 15 5.78Z" fill="#736760"/>
<path id="Vector_6" d="M5 8.28C5.43078 8.28 5.78 7.93078 5.78 7.5C5.78 7.06922 5.43078 6.72 5 6.72C4.56922 6.72 4.22 7.06922 4.22 7.5C4.22 7.93078 4.56922 8.28 5 8.28Z" fill="#736760"/>
<path id="Vector_7" d="M15 8.28C15.4308 8.28 15.78 7.93078 15.78 7.5C15.78 7.06922 15.4308 6.72 15 6.72C14.5692 6.72 14.22 7.06922 14.22 7.5C14.22 7.93078 14.5692 8.28 15 8.28Z" fill="#736760"/>
<path id="Vector_8" d="M5 10.78C5.43078 10.78 5.78 10.4308 5.78 10C5.78 9.56922 5.43078 9.22 5 9.22C4.56922 9.22 4.22 9.56922 4.22 10C4.22 10.4308 4.56922 10.78 5 10.78Z" fill="#736760"/>
<path id="Vector_9" d="M15 10.78C15.4308 10.78 15.78 10.4308 15.78 10C15.78 9.56922 15.4308 9.22 15 9.22C14.5692 9.22 14.22 9.56922 14.22 10C14.22 10.4308 14.5692 10.78 15 10.78Z" fill="#736760"/>
<path id="Vector_10" d="M5 13.28C5.43078 13.28 5.78 12.9308 5.78 12.5C5.78 12.0692 5.43078 11.72 5 11.72C4.56922 11.72 4.22 12.0692 4.22 12.5C4.22 12.9308 4.56922 13.28 5 13.28Z" fill="#736760"/>
<path id="Vector_11" d="M15 13.28C15.4308 13.28 15.78 12.9308 15.78 12.5C15.78 12.0692 15.4308 11.72 15 11.72C14.5692 11.72 14.22 12.0692 14.22 12.5C14.22 12.9308 14.5692 13.28 15 13.28Z" fill="#736760"/>
<path id="Vector_12" d="M5 15.78C5.43078 15.78 5.78 15.4308 5.78 15C5.78 14.5692 5.43078 14.22 5 14.22C4.56922 14.22 4.22 14.5692 4.22 15C4.22 15.4308 4.56922 15.78 5 15.78Z" fill="#736760"/>
<path id="Vector_13" d="M7.5 15.78C7.93078 15.78 8.28 15.4308 8.28 15C8.28 14.5692 7.93078 14.22 7.5 14.22C7.06922 14.22 6.72 14.5692 6.72 15C6.72 15.4308 7.06922 15.78 7.5 15.78Z" fill="#736760"/>
<path id="Vector_14" d="M10 15.78C10.4308 15.78 10.78 15.4308 10.78 15C10.78 14.5692 10.4308 14.22 10 14.22C9.56922 14.22 9.22 14.5692 9.22 15C9.22 15.4308 9.56922 15.78 10 15.78Z" fill="#736760"/>
<path id="Vector_15" d="M12.5 15.78C12.9308 15.78 13.28 15.4308 13.28 15C13.28 14.5692 12.9308 14.22 12.5 14.22C12.0692 14.22 11.72 14.5692 11.72 15C11.72 15.4308 12.0692 15.78 12.5 15.78Z" fill="#736760"/>
<path id="Vector_16" d="M15 15.78C15.4308 15.78 15.78 15.4308 15.78 15C15.78 14.5692 15.4308 14.22 15 14.22C14.5692 14.22 14.22 14.5692 14.22 15C14.22 15.4308 14.5692 15.78 15 15.78Z" fill="#736760"/>
</g>
</svg>
